# xmcd
#
# Track frame offsets:
#	150
#	18680
#	32451
#	46770
#	63325
#	78181
#	95343
#	113763
#	141409
#	159561
#	181966
#	193648
#	205861
#	223736
#	245988
#	261910
#	278665
#
# Disc length: 3948 seconds
#
# Revision: 0
# Processed by: cddbd v1.4PL0 Copyright (c) Steve Scherf et al.
# Submitted via: dBpowerAMP V4.0
#
DISCID=f20f6a11
DTITLE=Varios - Axé 2002
DYEAR=1900
DGENRE=
TTITLE0=Aninha na Praia
TTITLE1=Quebra Galho
TTITLE2=Impinadinho
TTITLE3=Panela de Pressão
TTITLE4=De Banda
TTITLE5=Fissura
TTITLE6=Rabadaba
TTITLE7=Swingueira
TTITLE8=Rebola Bola
TTITLE9=Rebola bola
TTITLE10=Dança dos Gorilas
TTITLE11=Mostra
TTITLE12=Mostra
TTITLE13=Namorar Pelado
TTITLE14=Namorar pelado
TTITLE15=Lixo
TTITLE16=Dança da Mãozinha
EXTD=
EXTT0=
EXTT1=
EXTT2=
EXTT3=
EXTT4=
EXTT5=
EXTT6=
EXTT7=
EXTT8=
EXTT9=
EXTT10=
EXTT11=
EXTT12=
EXTT13=
EXTT14=
EXTT15=
EXTT16=
PLAYORDER=
